<?xml version="1.0" encoding="UTF-8" standalone="no"?>
<!-- Created with Inkscape (http://www.inkscape.org/) -->

<svg
   width="38.32653mm"
   height="12.503298mm"
   viewBox="0 0 38.32653 12.503298"
   version="1.1"
   id="svg5"
   sodipodi:docname="amazing_banner.svg"
   xmlns:inkscape="http://www.inkscape.org/namespaces/inkscape"
   xmlns:sodipodi="http://sodipodi.sourceforge.net/DTD/sodipodi-0.dtd"
   xmlns:xlink="http://www.w3.org/1999/xlink"
   xmlns="http://www.w3.org/2000/svg"
   xmlns:svg="http://www.w3.org/2000/svg">
  <sodipodi:namedview
     id="namedview7"
     pagecolor="#505050"
     bordercolor="#ffffff"
     borderopacity="1"
     inkscape:showpageshadow="0"
     inkscape:pageopacity="0"
     inkscape:pagecheckerboard="1"
     inkscape:deskcolor="#505050"
     inkscape:document-units="mm"
     showgrid="false" />
  <defs
     id="defs2">
    <linearGradient
       inkscape:collect="always"
       id="linearGradient1028">
      <stop
         style="stop-color:#8bd5c9;stop-opacity:1;"
         offset="0"
         id="stop1024" />
      <stop
         style="stop-color:#f6a87e;stop-opacity:0.99738443;"
         offset="0.27655077"
         id="stop1096" />
      <stop
         style="stop-color:#c8a2f6;stop-opacity:1;"
         offset="0.47425237"
         id="stop2104" />
      <stop
         style="stop-color:#7bc3e5;stop-opacity:1;"
         offset="0.7213369"
         id="stop2106" />
      <stop
         style="stop-color:#d9d9d9;stop-opacity:1;"
         offset="1"
         id="stop1026" />
    </linearGradient>
    <linearGradient
       inkscape:collect="always"
       xlink:href="#linearGradient1028"
       id="linearGradient1030"
       x1="50.280235"
       y1="101.75485"
       x2="86.686768"
       y2="101.75485"
       gradientUnits="userSpaceOnUse"
       gradientTransform="translate(15.979707,-1.0853986)" />
    <filter
       style="color-interpolation-filters:sRGB"
       inkscape:label="Drop Shadow"
       id="filter2963"
       x="-0.026368896"
       y="-0.090708964"
       width="1.0527378"
       height="1.1814179">
      <feFlood
         flood-opacity="1"
         flood-color="rgb(0,0,0)"
         result="flood"
         id="feFlood2953" />
      <feComposite
         in="flood"
         in2="SourceGraphic"
         operator="in"
         result="composite1"
         id="feComposite2955" />
      <feGaussianBlur
         in="composite1"
         stdDeviation="0.4"
         result="blur"
         id="feGaussianBlur2957" />
      <feOffset
         dx="0"
         dy="0"
         result="offset"
         id="feOffset2959" />
      <feComposite
         in="SourceGraphic"
         in2="offset"
         operator="over"
         result="composite2"
         id="feComposite2961" />
    </filter>
    <linearGradient
       inkscape:collect="always"
       xlink:href="#linearGradient1028"
       id="linearGradient527"
       gradientUnits="userSpaceOnUse"
       gradientTransform="translate(15.979707,-1.0853986)"
       x1="50.280235"
       y1="101.75485"
       x2="86.686768"
       y2="101.75485" />
    <linearGradient
       inkscape:collect="always"
       xlink:href="#linearGradient1028"
       id="linearGradient529"
       gradientUnits="userSpaceOnUse"
       gradientTransform="translate(15.979707,-1.0853986)"
       x1="50.280235"
       y1="101.75485"
       x2="86.686768"
       y2="101.75485" />
    <linearGradient
       inkscape:collect="always"
       xlink:href="#linearGradient1028"
       id="linearGradient531"
       gradientUnits="userSpaceOnUse"
       gradientTransform="translate(15.979707,-1.0853986)"
       x1="50.280235"
       y1="101.75485"
       x2="86.686768"
       y2="101.75485" />
    <linearGradient
       inkscape:collect="always"
       xlink:href="#linearGradient1028"
       id="linearGradient533"
       gradientUnits="userSpaceOnUse"
       gradientTransform="translate(15.979707,-1.0853986)"
       x1="50.280235"
       y1="101.75485"
       x2="86.686768"
       y2="101.75485" />
    <linearGradient
       inkscape:collect="always"
       xlink:href="#linearGradient1028"
       id="linearGradient535"
       gradientUnits="userSpaceOnUse"
       gradientTransform="translate(15.979707,-1.0853986)"
       x1="50.280235"
       y1="101.75485"
       x2="86.686768"
       y2="101.75485" />
    <linearGradient
       inkscape:collect="always"
       xlink:href="#linearGradient1028"
       id="linearGradient537"
       gradientUnits="userSpaceOnUse"
       gradientTransform="translate(15.979707,-1.0853986)"
       x1="50.280235"
       y1="101.75485"
       x2="86.686768"
       y2="101.75485" />
  </defs>
  <g
     inkscape:label="Layer 1"
     inkscape:groupmode="layer"
     id="layer1"
     transform="translate(-65.299938,-94.417772)">
    <g
       aria-label="dotfiles"
       id="text285"
       style="font-size:10.5833px;line-height:1.25;fill:url(#linearGradient1030);stroke-width:0.265;stroke-opacity:0.258659;filter:url(#filter2963)"
       inkscape:highlight-color="#ffffff">
      <path
         d="m 68.884599,99.801612 c 0,0.04233 -0.0635,0.211668 -0.05292,0.253998 -0.592665,1.57691 -1.142997,1.67216 -1.418162,1.67216 h -0.09525 c -0.264583,0 -0.423332,-0.16933 -0.423332,-0.52916 0,-0.78317 0.846664,-1.693331 1.587495,-1.693331 0.243416,0 0.402165,0.09525 0.402165,0.296333 z m 1.714495,2.243658 c 0,-0.10583 -0.0635,-0.21166 -0.169333,-0.27516 -0.02117,-0.0106 -0.465665,-0.254 -0.465665,-1.2065 0,-0.13758 0.01058,-0.37042 0.03175,-0.634999 0.08467,-1.100663 0.222249,-2.381242 0.317499,-3.428989 0.02117,-0.201083 0.07408,-0.687914 0.07408,-0.793747 0,-0.148167 -0.116417,-0.328083 -0.317499,-0.328083 -0.15875,0 -0.296333,0.127 -0.317499,0.285749 -0.15875,1.386413 -0.317499,2.317743 -0.603248,3.39724 -0.201083,-0.169333 -0.402166,-0.1905 -0.666748,-0.1905 -1.164163,0 -2.222493,1.206499 -2.222493,2.328329 0,0.59266 0.370415,1.16416 1.05833,1.16416 0.391582,0 1.291162,-0.10583 2.010827,-1.83091 v 0.0318 c 0,1.30174 0.730247,1.72508 0.814914,1.76741 0.04233,0.0212 0.09525,0.0318 0.137583,0.0318 0.158749,0 0.317499,-0.127 0.317499,-0.3175 z"
         id="path428"
         style="fill:url(#linearGradient527)" />
      <path
         d="m 73.879914,99.293613 c 0,-0.359832 -0.539748,-0.423332 -0.846664,-0.423332 -0.941913,0 -1.587495,0.804331 -1.587495,1.693329 0,1.016 0.783164,1.79916 1.799161,1.79916 0.899581,0 1.904994,-0.60325 1.904994,-1.64041 0,-0.10583 -0.01058,-0.20108 -0.02117,-0.29633 0.158749,0.0212 0.285749,0.0318 0.444498,0.0318 0.169333,0 0.317499,-0.14817 0.317499,-0.3175 0,-0.169336 -0.148166,-0.317502 -0.317499,-0.317502 -0.391582,0 -0.592665,-0.04233 -0.86783,-0.253999 -0.05292,-0.03175 -0.116417,-0.0635 -0.1905,-0.0635 -0.169333,0 -0.317499,0.148166 -0.317499,0.317499 0,0.08467 0.03175,0.15875 0.09525,0.222252 0.148166,0.14816 0.222249,0.30691 0.222249,0.67733 0,0.55033 -0.582081,1.00541 -1.269996,1.00541 -0.677331,0 -1.164163,-0.48683 -1.164163,-1.16416 0,-0.592666 0.412749,-1.058331 0.952497,-1.058331 0.1905,0 0.275166,0.01058 0.391582,0.07408 0.04233,0.02117 0.09525,0.03175 0.137583,0.03175 0.15875,0 0.317499,-0.126999 0.317499,-0.317499 z"
         style="font-family:Pecita;-inkscape-font-specification:Pecita;fill:url(#linearGradient529)"
         id="path430" />
      <path
         d="m 80.547389,101.41027 c -0.0635,0 -0.127,0.0212 -0.179916,0.0529 -0.296332,0.1905 -0.486832,0.26458 -0.666748,0.26458 -0.497415,0 -0.740831,-0.6985 -0.740831,-1.58749 0,-0.10584 0,-0.232835 0.01058,-0.370418 0.539749,-0.07408 1.005414,-0.201083 1.24883,-0.285749 0.126999,-0.04233 0.222249,-0.15875 0.222249,-0.296333 0,-0.190499 -0.158749,-0.317499 -0.317499,-0.317499 -0.03175,0 -0.0635,0.01058 -0.09525,0.02117 -0.179916,0.0635 -0.582081,0.158749 -1.02658,0.222249 0.0635,-0.952497 0.169333,-2.169576 0.169333,-2.783408 0,-0.137583 -0.127,-0.317499 -0.317499,-0.317499 -0.127,0 -0.253999,0.07408 -0.296332,0.201083 -0.328083,0.878414 -1.830911,3.608905 -2.984491,3.608905 -0.169333,0 -0.317499,0.148166 -0.317499,0.317499 0,0.16933 0.148166,0.3175 0.317499,0.3175 1.238246,0 2.254243,-1.481663 2.878658,-2.582326 -0.03175,0.455082 -0.0635,0.910164 -0.08467,1.312329 h -0.148166 c -0.169333,0 -0.317499,0.148166 -0.317499,0.317499 0,0.169333 0.148166,0.317499 0.317499,0.317499 h 0.116416 c 0,0.116416 -0.01058,0.222249 -0.01058,0.317499 0,0.80433 0.179916,2.22249 1.375829,2.22249 0.349249,0 0.687915,-0.13758 1.02658,-0.37042 0.09525,-0.0635 0.137583,-0.15874 0.137583,-0.26458 0,-0.17991 -0.158749,-0.3175 -0.317499,-0.3175 z"
         style="font-family:Pecita;-inkscape-font-specification:Pecita;fill:url(#linearGradient531)"
         id="path432" />
      <path
         d="m 87.955695,97.494452 c -0.211666,0 -0.317499,0.317499 -0.317499,0.529165 0,0.179916 0.137583,0.317499 0.317499,0.317499 0.211666,0 0.317499,-0.317499 0.317499,-0.529165 0,-0.179916 -0.137583,-0.317499 -0.317499,-0.317499 z m -3.386656,-0.634998 c 0,1.21708 -0.751414,2.529409 -1.481661,3.503076 0.03175,-1.439332 0.179916,-2.624662 0.550331,-3.725325 0.148166,-0.455082 0.370416,-0.624415 0.507998,-0.624415 0.211666,0 0.423332,0.328083 0.423332,0.846664 z m 0.634998,0 c 0,-0.539748 -0.211666,-1.481662 -1.05833,-1.481662 -0.603248,0 -0.93133,0.571499 -1.100663,1.068914 -0.433915,1.312329 -0.592664,2.719908 -0.592664,4.434404 v 0.26458 c -0.1905,0.22225 -0.645582,0.67733 -0.645582,0.67733 -0.0635,0.0635 -0.09525,0.13758 -0.09525,0.22225 0,0.16933 0.148166,0.3175 0.317499,0.3175 0.07408,0 0.148166,-0.0212 0.211666,-0.0741 0.02117,-0.0212 0.08467,-0.0953 0.232832,-0.24342 0.0635,1.51341 0.211666,3.03741 0.296333,3.64066 0.02117,0.127 0.148166,0.27516 0.317499,0.27516 0.169332,0 0.317499,-0.14816 0.317499,-0.3175 0,-1.93674 3.005657,-4.97415 4.233319,-4.97415 0.15875,0 0.264583,0.14817 0.444499,0.635 0.232833,0.64558 0.582081,1.05833 1.354662,1.05833 0.169333,0 0.317499,-0.14817 0.317499,-0.3175 0,-0.16933 -0.148166,-0.3175 -0.317499,-0.3175 -0.497415,0 -0.571498,-0.0953 -0.761997,-0.635 -0.137583,-0.40216 -0.349249,-1.05833 -1.037164,-1.05833 -1.386412,0 -3.492489,2.02141 -4.413236,3.89466 -0.0635,-0.80433 -0.116416,-1.68275 -0.137582,-2.55058 0.89958,-1.04774 2.116659,-2.741071 2.116659,-4.519066 z"
         style="font-family:Pecita;-inkscape-font-specification:Pecita;fill:url(#linearGradient533)"
         id="path434" />
      <path
         d="m 93.353176,96.541955 c 0,1.15358 -0.730248,2.836325 -1.756828,3.968735 -0.03175,-0.17991 -0.04233,-0.381 -0.04233,-0.582079 0,-1.873244 0.730247,-3.915821 1.481662,-3.915821 0.08467,0 0.317499,0.116417 0.317499,0.529165 z m 2.963324,3.386656 c 0,0.486829 -0.338666,1.037159 -0.899581,1.481659 -0.306916,-0.17991 -0.476248,-0.42333 -0.476248,-0.84666 0,-0.592666 0.412748,-1.058331 0.952497,-1.058331 0.253999,0 0.423332,0.169333 0.423332,0.423332 z m 0.634998,2.434159 c 0.169332,0 0.317499,-0.14817 0.317499,-0.3175 0,-0.16933 -0.148167,-0.3175 -0.317499,-0.3175 -0.285749,0 -0.582082,-0.0212 -0.846664,-0.0741 0.486831,-0.47625 0.846664,-1.0795 0.846664,-1.725079 0,-0.592665 -0.465666,-1.05833 -1.05833,-1.05833 -0.941914,0 -1.587495,0.804331 -1.587495,1.693329 0,0.51858 0.211666,0.93133 0.539748,1.21708 -0.465665,0.24341 -0.93133,0.37041 -1.386412,0.37041 -0.836081,0 -1.354663,-0.34924 -1.640412,-0.94191 1.24883,-1.227662 2.169577,-3.185573 2.169577,-4.667235 0,-0.645581 -0.402166,-1.164163 -0.952497,-1.164163 -1.576912,0 -2.11666,2.825741 -2.11666,4.550819 0,0.391579 0.05292,0.761999 0.148166,1.100659 -0.539748,0.4445 -1.100663,0.6985 -1.629828,0.6985 -0.169333,0 -0.317499,0.14817 -0.317499,0.3175 0,0.16933 0.148166,0.3175 0.317499,0.3175 0.666748,0 1.312329,-0.29633 1.883827,-0.73025 0.412749,0.71967 1.164163,1.15358 2.137827,1.15358 0.698498,0 1.428745,-0.254 2.031993,-0.64558 0.444499,0.15875 0.963081,0.22225 1.460496,0.22225 z"
         style="font-family:Pecita;-inkscape-font-specification:Pecita;fill:url(#linearGradient535)"
         id="path436" />
      <path
         d="m 100.44398,101.83361 c 0,0.39158 0.68791,0.52916 0.95249,0.52916 0.71967,0 1.27,-0.59266 1.27,-1.37583 0,-0.86783 -0.51858,-2.010826 -1.58749,-2.010826 -0.96309,0 -1.651,0.99483 -2.127248,1.471076 -0.529165,0.52917 -1.460495,1.28058 -2.000244,1.28058 -0.169332,0 -0.317499,0.14817 -0.317499,0.3175 0,0.16933 0.148167,0.3175 0.317499,0.3175 0.941914,0 1.915578,-0.94191 2.444743,-1.47108 0.582081,-0.58208 1.164159,-1.280578 1.682749,-1.280578 0.51858,0 0.95249,0.656168 0.95249,1.375828 0,0.48683 -0.29633,0.74083 -0.635,0.74083 -0.15875,0 -0.28574,-0.0318 -0.44449,-0.14816 -0.0529,-0.0423 -0.127,-0.0635 -0.1905,-0.0635 -0.16934,0 -0.3175,0.13758 -0.3175,0.3175 z"
         style="font-family:Pecita;-inkscape-font-specification:Pecita;fill:url(#linearGradient537)"
         id="path438" />
    </g>
  </g>
</svg>
